<?xml version="1.0" standalone="no"?>
<!DOCTYPE svg PUBLIC "-//W3C//DTD SVG 20010904//EN"
 "http://www.w3.org/TR/2001/REC-SVG-20010904/DTD/svg10.dtd">
<svg version="1.0" xmlns="http://www.w3.org/2000/svg"
 width="310.000000pt" height="310.000000pt" viewBox="0 0 310.000000 310.000000"
 preserveAspectRatio="xMidYMid meet">
<metadata>
Created by potrace 1.11, written by Peter Selinger 2001-2013
</metadata>
<g transform="translate(0.000000,310.000000) scale(0.100000,-0.100000)"
fill="#000000" stroke="none">
<path d="M1270 1857 c0 -766 -3 -824 -41 -899 -72 -141 -319 -143 -408 -2 -27
41 -43 102 -56 207 -4 26 -11 47 -18 47 -7 0 -88 -9 -182 -20 -93 -11 -176
-20 -184 -20 -11 0 -13 -16 -8 -83 25 -315 180 -513 450 -572 103 -23 335 -17
417 11 51 17 109 18 768 21 l712 3 0 175 0 175 -515 0 -515 0 0 850 0 850
-210 0 -210 0 0 -743z"/>
</g>
</svg>
